<svg width="160" height="160" viewBox="0 0 160 160" fill="none" xmlns="http://www.w3.org/2000/svg">
  <rect width="160" height="160" rx="30" fill="#F6F6F4"/>
  <path d="M104 24H64C42.46 24 25 41.46 25 63C25 78.55 34.1 91.98 47.28 98.24C39.57 91.17 35 81.02 35 69.8C35 48.37 52.37 31 73.8 31H104C111.86 31 119.4 27.88 124.97 22.31C121.63 23.43 117.86 24 114 24H104Z" fill="#72D6D0"/>
  <path d="M69 56H102C122.43 56 139 72.57 139 93C139 101.33 136.25 109.01 131.61 115.19C133.17 110.89 134 106.24 134 101.4C134 79.97 116.63 62.6 95.2 62.6H69C60.81 62.6 52.96 59.35 47.17 53.57C50.64 55.18 54.49 56 58.4 56H69Z" fill="#C6CFDF"/>
  <path d="M38 112H79C86.38 112 93.46 109.07 98.68 103.85C103.9 98.63 106.84 91.55 106.84 84.17C106.84 83.48 106.81 82.79 106.76 82.11C112.9 87.96 116.75 96.21 116.75 105.36C116.75 123.09 102.37 137.47 84.64 137.47H38V112Z" fill="#151A2F"/>
</svg>
